<svg width="1442" height="997" viewBox="0 0 1442 997" fill="none" xmlns="http://www.w3.org/2000/svg">
<path d="M9.10004 404.619C7.24004 404.489 5.23004 404.429 4.98004 402.349C4.76004 400.549 6.62004 400.469 7.81004 400.689C9.48004 401.009 11.9501 400.889 12.1801 403.059C12.4101 405.239 10.1501 404.259 9.10004 404.609V404.619Z" fill="#114C6E"/>
<path d="M71.32 247.98C69.54 247.74 67.67 247.74 67.63 245.4C67.61 244.08 68.43 243.11 69.86 243.41C71.69 243.79 73.41 244.74 73.58 246.77C73.71 248.29 72.09 247.7 71.32 247.98Z" fill="#676765"/>
<path d="M751.62 288.22C750.28 287.64 747.99 288.08 748.03 286.07C748.07 284.43 750.13 284.38 751.45 284.36C752.72 284.34 754.06 284.92 754.08 286.58C754.1 288.3 752.79 288.17 751.62 288.22Z" fill="#284561"/>
<path d="M409.97 39.8204C409.94 40.9504 409.4 41.6804 408.3 41.5204C406.66 41.2904 405.24 40.4504 404.94 38.7404C404.72 37.4804 405.78 36.8904 406.94 36.9404C408.74 37.0204 409.81 38.0004 409.97 39.8204Z" fill="#054772"/>
<path d="M358 248.329C357.73 249.809 356.73 250.309 355.43 250.179C354.16 250.049 353.03 249.309 353.1 247.999C353.17 246.809 354.18 245.799 355.45 245.829C356.91 245.869 357.72 246.929 357.99 248.329H358Z" fill="#094075"/>
<path d="M182.74 501.359C180.97 501.319 179.8 500.699 179.69 499.179C179.6 497.829 180.59 496.929 181.91 497.059C183.2 497.189 184.58 497.759 184.73 499.299C184.87 500.789 183.67 501.189 182.74 501.359Z" fill="#625855"/>
<path d="M25.0698 587.84C24.4598 589.43 23.2 589.71 21.87 589.68C20.28 589.64 19.49 588.64 19.6 587.12C19.72 585.37 21.1198 585.65 22.2598 585.74C23.6298 585.85 24.7698 586.35 25.0698 587.84Z" fill="#575550"/>
<path d="M247.22 271.34C248.86 271.64 250.21 272.32 250.27 273.98C250.31 275.26 249.08 275.52 247.97 275.49C246.32 275.44 245.15 274.6 245.08 272.94C245.03 271.59 246.24 271.43 247.21 271.34H247.22Z" fill="#82766A"/>
<path d="M152.85 432.878C151.52 432.918 150.48 432.428 150.35 431.008C150.23 429.758 151.04 429.068 152.26 429.078C153.67 429.078 154.88 429.528 154.96 431.218C155.02 432.678 153.95 432.828 152.85 432.878Z" fill="#56493C"/>
<path d="M392.36 437.348C392.08 438.628 391.05 438.978 390 438.788C388.76 438.578 387.84 437.818 388.05 436.328C388.2 435.268 388.87 434.648 389.91 434.668C391.55 434.718 391.99 435.998 392.36 437.338V437.348Z" fill="#1C394A"/>
<path d="M633.99 111.791C633.75 113.131 632.88 113.541 631.75 113.481C630.27 113.401 629.3 112.561 629.22 111.101C629.15 109.761 630.17 109.331 631.31 109.531C632.62 109.751 633.72 110.361 633.99 111.791Z" fill="#045883"/>
<path d="M368.18 954.97C367.7 956.13 367.09 957.13 365.67 957.02C364.29 956.91 363.46 956.05 363.62 954.71C363.79 953.31 364.93 952.85 366.2 953.06C367.23 953.23 368.25 953.6 368.18 954.97Z" fill="#797773"/>
<path d="M337.02 230.18C335.49 229.81 334.02 229.62 333.8 228.01C333.63 226.76 334.58 225.95 335.72 226.08C337.06 226.23 338.27 227.06 338.53 228.48C338.73 229.57 337.71 229.94 337.02 230.19V230.18Z" fill="#818C8A"/>
<path d="M745.91 109.471C745.85 110.761 745.03 111.131 744.03 110.961C742.83 110.761 741.69 110.201 741.72 108.761C741.74 107.721 742.52 107.051 743.58 107.201C744.86 107.381 745.61 108.281 745.91 109.481V109.471Z" fill="#14597E"/>
<path d="M780.65 132.359C780.79 133.319 780.21 133.779 779.35 133.759C777.97 133.739 776.8 133.149 776.48 131.729C776.24 130.659 777.01 130.049 778.03 129.999C779.59 129.929 780.22 131.039 780.66 132.359H780.65Z" fill="#1A5276"/>
<path d="M1387.8 595.031C1386.27 594.801 1384.11 594.671 1384.71 592.581C1385.25 590.691 1387.13 592.081 1388.43 592.221C1388.29 593.171 1388.68 594.251 1387.8 595.031Z" fill="#807567"/>
<path d="M933.67 964.728C932.99 964.048 932.41 963.128 933.34 962.478C934.4 961.738 935.73 961.598 936.84 962.668C937.46 963.498 937.38 964.268 936.63 964.968H936.68C935.61 965.748 934.58 966.148 933.68 964.718L933.67 964.728Z" fill="#916E4D"/>
<path d="M980.88 973.702C981.55 972.702 982.2 971.582 983.66 972.532C985.18 973.522 984.74 974.692 983.89 975.872C981.78 976.692 980.83 975.892 980.88 973.702Z" fill="#666460"/>
<path d="M1317.08 495.289C1319.07 493.649 1320.74 492.939 1320.83 496.629C1319.11 497.489 1317.97 496.749 1317.08 495.289Z" fill="#807772"/>
<path d="M1231.74 545.462C1231.88 544.702 1232.01 543.952 1232.15 543.192C1233.69 543.182 1235.49 543.442 1234.89 545.382C1234.39 547.012 1232.84 546.322 1231.74 545.462Z" fill="#807F7B"/>
<path d="M922.42 594.34C923.88 594.42 925.47 594.44 925.57 596.4C925.62 597.4 924.85 598.19 923.78 597.95C922.35 597.62 920.99 596.79 920.69 595.3C920.48 594.25 921.69 594.43 922.42 594.35V594.34Z" fill="#3B4A66"/>
<path d="M1306.6 636.261C1306.96 635.061 1307.69 634.411 1308.89 634.621C1310.07 634.841 1311.18 635.371 1311.12 636.801C1311.06 638.101 1310.1 638.531 1308.95 638.311C1307.79 638.091 1306.77 637.591 1306.61 636.261H1306.6Z" fill="#BCC3DF"/>
<path d="M996.35 651.941C998.2 652.771 999.85 653.651 1000.09 655.771C1000.24 657.111 999.68 658.241 998.18 658.251C996.1 658.251 995.36 656.851 995.49 654.991C995.56 653.971 994.93 652.621 996.35 651.941Z" fill="#686C91"/>
<path d="M941.15 636.08C942.39 636.23 942.67 637.16 942.68 638.18C942.69 639.55 942.11 640.54 940.58 640.46C939.4 640.4 938.86 639.53 938.87 638.46C938.87 637.04 939.88 636.41 941.15 636.07V636.08Z" fill="#8083A4"/>
<path d="M101.06 540.27C100.99 540.19 100.91 540.12 100.86 540.03C99.72 538.16 102.63 534.26 97.83 534.17C95.37 534.12 92.9 533.12 90.5 534.37C89.22 535.04 88.18 534.86 87.31 533.72C86.28 532.37 87.11 531.33 88.1 530.65C89.66 529.59 88.83 528.23 89.09 527.01C90.26 521.49 86.51 523.22 83.98 523.01C83.34 522.96 82.71 522.87 81.63 522.74C83.37 521.02 85.16 521.8 86.7 521.74C88.73 521.67 89.99 521.29 90.13 518.85C90.28 516.3 94.63 511.98 97.12 511.85C99.8 511.71 100.91 510.6 100.64 507.94C100.54 506.97 100.58 505.7 102.13 506.11C103.27 506.41 103.13 507.24 102.64 508.2C101.54 510.35 103.08 511.57 104.6 512.38C107.63 513.99 110.13 515.86 110.68 519.57C111.01 521.77 113.29 521.45 115.75 522.56C111.73 522.73 111.03 524.6 111.08 527.32C111.13 530.06 109 531.59 106.93 532.84C104.02 534.59 100.76 535.96 102.03 540.77C101.71 540.6 101.39 540.44 101.07 540.27H101.06Z" fill="#151836"/>
<path d="M95.62 523.131C98.42 521.661 100.45 520.231 100.91 516.941C102.46 519.031 103.01 521.231 104.98 522.341C106.18 523.021 105.2 523.601 104.62 524.031C102.92 525.311 101.78 527.011 100.9 529.641C100.33 526.221 99.05 524.061 95.62 523.131Z" fill="#6A6C72"/>
<path d="M130.89 432.658C130.61 433.698 130.04 434.648 128.95 434.568C127.51 434.458 127.07 433.238 127.02 431.938C126.98 430.898 127.43 430.178 128.55 430.308C129.89 430.468 130.71 431.268 130.89 432.658Z" fill="#525671"/>
<path d="M1309.27 449.959C1307.5 449.109 1306 449.749 1304.52 449.709C1302.53 449.669 1300.03 449.849 1299.78 446.529C1299.64 444.659 1298.44 442.749 1297.53 441.279C1294.5 436.409 1298.69 432.739 1298.94 428.499C1298.98 427.849 1299.89 427.739 1300.51 427.499C1301.83 426.999 1303.07 426.249 1304.41 425.839C1306 425.349 1305.2 420.839 1308.28 423.349C1309.82 424.599 1311.9 424.269 1313.21 425.719C1313.55 426.099 1314.25 426.669 1314.49 426.549C1317.93 424.909 1316.46 428.419 1317.36 429.379C1317.63 429.669 1316.89 431.059 1317.78 431.359C1324.09 433.459 1319.11 438.539 1320.52 441.999C1321.26 443.819 1318.11 444.519 1316.84 445.599C1314.65 447.449 1312.04 449.219 1309.26 449.959H1309.27Z" fill="#161833"/>
<path d="M1312.34 437.492C1313.1 437.112 1314.1 436.902 1314.18 437.932C1314.31 439.842 1315.84 440.632 1316.99 441.832C1314.67 442.192 1312.53 442.512 1310.47 442.832C1309.59 444.282 1312.65 443.492 1311.47 444.802C1310.55 445.832 1309.17 445.942 1307.81 445.652C1306.76 445.422 1305.64 444.782 1306.19 443.742C1306.81 442.572 1306.01 441.962 1305.61 441.502C1303.57 439.192 1303.03 436.742 1304.27 434.202C1304.99 432.742 1303.88 431.532 1303.6 430.242C1305.71 429.222 1308.59 430.792 1309.79 427.512C1310.6 428.912 1310.85 430.092 1312.57 430.282C1314.61 430.512 1313.61 431.082 1313.82 433.342C1314.02 435.402 1312.42 436.032 1312.37 437.512C1311.27 438.252 1310.55 437.372 1309.76 436.872C1309.01 436.392 1308.53 436.812 1308.1 437.352C1307.34 438.302 1308.1 438.962 1308.6 439.642C1309.25 440.532 1309.71 439.882 1310.09 439.372C1310.7 438.562 1311.63 438.172 1312.34 437.502V437.492Z" fill="#24265E"/>
<path d="M1312.34 437.492C1312.39 439.912 1309.14 439.992 1309.21 442.512C1308.29 440.552 1307.45 438.992 1305.03 438.272C1307.23 437.302 1308.33 435.932 1308.84 434.012C1310.5 434.982 1310.41 437.292 1312.38 437.502L1312.35 437.482L1312.34 437.492Z" fill="#EBECF0"/>
<path d="M1115.92 628.07C1118.04 628.2 1120 628.14 1119.54 625.11C1120.85 624.25 1122.07 622.92 1123.5 622.62C1126.12 622.06 1126.84 620.67 1126.57 618.27C1126.45 617.19 1126.55 616.09 1126.55 615C1126.7 615 1126.85 615 1127 615C1127 616.61 1127 618.22 1127 619.84C1126.99 621.31 1127.58 622.28 1129.13 622.51C1131.93 622.93 1133.54 624.72 1134.11 627.32C1134.46 628.92 1135.23 629.36 1136.74 629.34C1138 629.32 1139.39 628.94 1140.49 630.17C1139.09 630.17 1137.69 630.2 1136.29 630.16C1135.31 630.13 1134.63 630.36 1134.54 631.48C1134.26 634.85 1131.68 636.13 1129.07 637.3C1128.27 637.66 1127.56 638.02 1127 638.69C1126.38 637.44 1126.56 636.25 1127.8 635.66C1129.98 634.62 1131.33 633.04 1131.82 630.69C1131.88 630.43 1132.1 630.21 1132.3 630.04C1132.34 630.01 1132.4 629.97 1132.46 629.94C1132.52 629.91 1132.58 629.9 1132.64 629.87C1131.54 629.7 1131.06 628.87 1130.64 627.98C1130.29 627.23 1129.7 626.72 1128.94 626.5C1127.21 626 1126.69 624.79 1126.78 623.19C1126.63 623.83 1127.08 624.5 1126.81 625.19C1125.24 627.25 1123.24 628.62 1120.65 629.04C1119 629.07 1117.14 630.07 1115.91 628.07H1115.92Z" fill="#231931"/>
<path d="M1119.31 630.212C1120.18 630.172 1121.04 630.122 1121.91 630.082C1122.26 629.772 1122.66 629.741 1123.08 629.911C1123.67 632.071 1125.76 633.162 1126.77 634.752C1127.81 633.052 1130.18 632.262 1131.17 630.192C1131.33 630.062 1131.51 629.962 1131.71 629.902C1132.04 629.862 1132.33 629.931 1132.53 630.221C1132.05 633.041 1131.06 635.392 1127.92 636.282C1127.05 636.532 1127.05 637.761 1127.01 638.671C1127.01 640.151 1127.01 641.642 1127.01 643.142C1125.47 642.642 1124.2 642.331 1126.33 640.671C1127 640.151 1127.05 638.231 1125.64 637.361C1125.16 637.061 1124.66 636.792 1124.13 636.592C1121.76 635.712 1120.21 634.172 1119.85 631.572C1119.78 631.102 1119.5 630.662 1119.31 630.202V630.212Z" fill="#2A1C3A"/>
<path d="M1086.59 642.801C1087.51 642.421 1088.43 642.041 1088.28 643.691C1087.57 643.681 1086.52 644.291 1086.59 642.801Z" fill="#CFD0D3"/>
<path d="M1132.52 630.219C1132.22 630.179 1131.91 630.149 1131.61 630.109C1129.64 628.779 1126.83 628.34 1126.5 625.28C1126.5 625.18 1126.49 625.079 1126.48 624.979L1126.61 622.27C1126.75 624.31 1127.65 625.62 1129.76 626.09C1130.35 626.22 1130.91 626.76 1131.2 627.5C1131.65 628.66 1132.22 629.799 1133.95 629.539C1133.47 630.379 1132.92 630.049 1132.52 630.219Z" fill="#4D2F69"/>
<path d="M1122.81 628.529C1122.22 628.289 1121.59 628.839 1121.01 628.419C1123.23 627.899 1124.75 626.269 1126.48 624.969C1126.54 625.039 1126.59 625.099 1126.65 625.169C1126.92 628.349 1125.47 629.619 1122.82 628.529H1122.81Z" fill="#4D2F69"/>
<path d="M1122.81 628.532C1125.75 628.312 1126.24 627.882 1126.64 625.172C1127.03 626.292 1127.54 627.172 1128.9 627.482C1130.21 627.782 1130.5 629.422 1131.6 630.102V630.092C1130.35 631.332 1128.89 632.332 1127.57 633.482C1126.84 634.112 1126.44 634.132 1125.92 633.352C1125.13 632.172 1124.12 631.192 1123.09 630.222C1122.69 630.172 1122.29 630.132 1121.88 630.082C1121.46 629.892 1121.04 629.702 1120.55 629.482C1121.36 629.202 1122.28 629.332 1122.78 628.532H1122.81Z" fill="#9967B5"/>
<path d="M1123.11 630.229C1125.16 630.379 1125.84 632.039 1126.75 633.449C1128.1 632.019 1129.57 630.649 1131.61 630.109C1131.19 631.499 1130.46 632.759 1129.19 633.439C1127.88 634.139 1126.94 634.979 1126.76 636.599C1126.59 634.939 1125.62 633.859 1124.37 633.199C1123.01 632.489 1122.91 631.479 1123.1 630.229H1123.11Z" fill="#543370"/>
<path d="M1129.63 629.721C1128.01 630.651 1126.77 632.081 1125.29 630.051C1125.01 629.671 1124.49 629.481 1125.09 628.901C1126.84 627.221 1128 628.761 1129.63 629.711V629.721Z" fill="#DBC3E1"/>
<path d="M259.34 160.709V146.539C259.61 146.539 259.88 146.539 260.15 146.539C260.71 148.709 260.3 150.959 260.43 153.169C260.46 153.739 260.5 154.319 260.43 154.879C259.98 158.439 260.47 161.149 264.85 161.919C267.97 162.469 269.51 165.169 270.19 168.049C270.72 170.289 271.85 170.729 273.94 170.709C276.73 170.679 279.6 170.169 282.32 171.559H272.52C270.25 171.529 267.97 171.709 265.77 170.909C264.69 168.329 262.9 166.469 260.26 165.459C259.27 164.249 260 162.699 259.46 161.399C259.39 161.179 259.35 160.949 259.33 160.719L259.34 160.709Z" fill="#19223A"/>
<path d="M270.74 171.638C270.5 179.158 268.67 179.058 262.59 182.258C261.95 182.598 261.2 182.718 260.5 182.938C259.24 180.668 259.32 178.828 261.28 177.658C263.63 176.248 265.42 174.598 266.14 171.908C266.24 171.528 266.66 171.298 267.06 171.168C268.33 170.978 269.53 171.368 270.74 171.638Z" fill="#1A203B"/>
<path d="M249.11 170.601C248.72 166.301 251.43 163.761 254.4 161.441C255.85 160.311 257.71 161.071 259.34 160.711L259.5 160.891C260.16 161.921 259.94 163.021 259.78 164.121C257.18 165.891 254.84 167.901 252.94 170.491C252.01 171.761 250.42 171.791 249.1 170.611L249.11 170.601Z" fill="#19223A"/>
<path d="M259.36 182.457C254.03 181.227 249.92 178.787 249.52 172.617C249.5 172.317 249.25 172.037 249.1 171.757C249.17 171.647 249.24 171.527 249.3 171.417C250.41 170.887 251.59 171.207 252.73 171.147C253.92 171.507 254.28 172.567 254.54 173.567C255.07 175.607 256.15 176.867 258.39 176.927C258.95 176.937 259.5 177.177 259.84 177.727C259.97 177.967 260.03 178.217 260.05 178.487C259.62 179.777 260.46 181.287 259.36 182.457Z" fill="#1C233F"/>
<path d="M249.11 170.598C251.47 171.188 252.81 169.918 253.87 168.038C255.08 165.878 256.91 164.558 259.41 164.238C260.03 164.648 259.91 165.338 260.05 165.928C260.06 166.178 260.03 166.418 259.95 166.658C259.08 168.388 257.3 169.338 256.25 170.928C256.04 171.078 255.82 171.178 255.58 171.258C253.45 171.568 251.29 171.118 249.17 171.568L249.1 171.768C245.73 171.768 242.35 171.768 238.98 171.768V171.228C242.35 171.018 245.72 170.818 249.1 170.608L249.11 170.598Z" fill="#22466A"/>
<path d="M259.36 182.458C259.4 180.938 259.44 179.408 259.48 177.888C260 177.308 259.61 176.358 260.31 175.838C262.34 174.918 263.53 173.118 264.89 171.498C265.09 171.358 265.31 171.258 265.54 171.188C266.05 171.148 266.53 171.178 266.82 171.698C266.36 173.448 266.15 175.318 264.61 176.578C264.31 176.828 264.06 177.308 263.74 177.358C260.21 177.818 260.28 180.328 260.49 182.938C260.49 186.008 260.49 189.068 260.49 192.138C260.11 192.138 259.73 192.138 259.36 192.148V182.458Z" fill="#27486D"/>
<path d="M266.83 171.698L265.29 171.578C262.12 171.818 260.24 170.318 260.32 167.598C261.55 166.868 262.52 167.468 263.37 168.278C264.19 169.068 264.98 169.878 265.89 170.578C268.25 169.908 270.3 171.378 272.54 171.528C271.94 171.558 271.35 171.598 270.75 171.628C269.45 171.648 268.14 171.678 266.84 171.698H266.83Z" fill="#738BA3"/>
<path d="M265.88 170.59C264.66 170.71 263.64 170.47 263.11 169.18C262.64 168.04 261.49 167.97 260.52 167.63C259.93 167.31 259.95 166.75 259.96 166.19C259.99 165.76 260.1 165.38 260.52 165.16C264.18 165.76 265.51 167.11 265.88 170.59Z" fill="#375D80"/>
<path d="M260.52 165.159L260.37 166.279C260.08 166.509 259.79 166.509 259.51 166.279C259.48 165.599 259.45 164.919 259.42 164.239C259.45 163.119 259.48 161.999 259.51 160.879C261.13 161.999 259.99 163.779 260.53 165.159H260.52Z" fill="#6B89A0"/>
<path d="M259.5 166.268C259.79 166.268 260.08 166.268 260.36 166.268C260.41 166.718 260.46 167.168 260.51 167.618C260.95 170.328 263.37 170.648 265.28 171.578L265.33 171.618C263.08 172.398 262.36 174.848 260.5 176.058C260.19 176.688 260.69 177.758 259.48 177.878C259.53 177.748 259.53 177.628 259.46 177.508C259.08 177.198 258.81 176.808 258.73 176.318C258.39 173.708 257.63 172.838 255.23 172.308C254.72 172.258 254.28 172.078 253.96 171.668C254.05 170.198 255.51 171.338 255.99 170.608L256.02 170.628C257.42 169.538 258.85 168.488 259.45 166.698C259.45 166.548 259.47 166.408 259.5 166.258V166.268Z" fill="#BFC2C6"/>
<path d="M254.15 171.549C254.58 171.599 255.01 171.649 255.45 171.699C256.51 173.389 258.63 174.109 259.41 176.049C259.43 176.539 259.45 177.019 259.46 177.509C256.03 177.349 255.34 178.399 254.09 174.409C253.8 173.489 253.37 172.629 253 171.739C253.32 171.289 253.71 171.299 254.14 171.539L254.15 171.549Z" fill="#27486D"/>
<path d="M254.15 171.547C253.77 171.617 253.39 171.677 253.01 171.747C251.73 171.687 250.46 171.617 249.18 171.557C251.4 170.897 253.69 170.677 255.99 170.617C255.61 171.377 254.58 170.877 254.15 171.547Z" fill="#57809C"/>
<path d="M259.45 166.711C259.76 169.291 258.12 170.171 256.02 170.641C256.46 168.711 258.2 167.931 259.45 166.711Z" fill="#6B89A0"/>
<path d="M259.41 176.061C257.75 174.921 255.61 174.211 255.45 171.711C258.08 171.971 259.29 173.301 259.41 176.061Z" fill="#57809C"/>
</svg>
